<svg width="16" height="16" viewBox="0 0 16 16" fill="none" xmlns="http://www.w3.org/2000/svg">
    <path d="M14.384 4.03205C13.904 4.24005 13.408 4.38405 12.88 4.44805C13.424 4.12805 13.84 3.61605 14.032 2.99205C13.52 3.29605 12.96 3.50405 12.368 3.63205C11.888 3.12005 11.2 2.80005 10.448 2.80005C8.99198 2.80005 7.82398 3.98405 7.82398 5.42405C7.82398 5.63205 7.83998 5.82405 7.88798 6.01605C5.71198 5.92005 3.79198 4.86405 2.49598 3.28005C1.56798 4.94405 2.60798 6.32005 3.29598 6.78405C2.87998 6.78405 2.46398 6.65605 2.11198 6.46405C2.11198 7.76005 3.02398 8.83205 4.20798 9.07205C3.95198 9.15205 3.37598 9.20005 3.02398 9.12005C3.35998 10.16 4.33598 10.928 5.47198 10.944C4.57598 11.648 3.26398 12.208 1.58398 12.032C2.75198 12.784 4.12798 13.216 5.61598 13.216C10.448 13.216 13.072 9.21605 13.072 5.76005C13.072 5.64805 13.072 5.53605 13.056 5.42405C13.6 5.02405 14.048 4.56005 14.384 4.03205Z" fill="white" />
</svg>